<svg width="32" height="32" viewBox="0 0 32 32" fill="none" xmlns="http://www.w3.org/2000/svg">
  <rect width="32" height="32" rx="8" fill="url(#gradient)"/>
  <path d="M16 8C12.6863 8 10 10.6863 10 14C10 17.3137 12.6863 20 16 20C19.3137 20 22 17.3137 22 14C22 10.6863 19.3137 8 16 8Z" fill="white" opacity="0.9"/>
  <circle cx="16" cy="14" r="3" fill="url(#innerGradient)"/>
  <path d="M8 22C8 20.8954 8.89543 20 10 20H22C23.1046 20 24 20.8954 24 22V24C24 25.1046 23.1046 26 22 26H10C8.89543 26 8 25.1046 8 24V22Z" fill="white" opacity="0.7"/>
  <defs>
    <linearGradient id="gradient" x1="0" y1="0" x2="32" y2="32" gradientUnits="userSpaceOnUse">
      <stop stop-color="#EC4899"/>
      <stop offset="1" stop-color="#F97316"/>
    </linearGradient>
    <linearGradient id="innerGradient" x1="13" y1="11" x2="19" y2="17" gradientUnits="userSpaceOnUse">
      <stop stop-color="#EC4899"/>
      <stop offset="1" stop-color="#8B5CF6"/>
    </linearGradient>
  </defs>
</svg>

